<?xml version="1.0" encoding="utf-8"?>
<!-- Generated by IcoMoon.io -->
<!DOCTYPE svg PUBLIC "-//W3C//DTD SVG 1.1//EN" "http://www.w3.org/Graphics/SVG/1.1/DTD/svg11.dtd">
<svg version="1.1" xmlns="http://www.w3.org/2000/svg" xmlns:xlink="http://www.w3.org/1999/xlink" width="512" height="512" viewBox="0 0 512 512">
<g>
</g>
	<path d="M6812.242 78235.535h346.993v164.342h18.77v164.096h-390.707v-164.096h24.955v-164.342h-0.010zM7075.614 78642.155h60.969v59.924h-60.969v-59.924zM6830.756 78642.155h60.703v59.924h-60.703v-59.924zM6789.1 78585.323h390.164l-15.155 37.284-355.717 1.065-19.292-38.349zM7242.291 78297.518h-39.598v37.817h-41.667v22.098h81.275v-59.914h-0.010zM6728.642 78297.518v59.914h82.565v-22.098h-42.435v-37.817h-40.131zM6837.975 78399.877h295.516v-150.723h-295.516v150.723zM6828.708 78495.038v43.735h62.515v-43.735h-62.515zM7080.51 78495.038v43.735h62.494v-43.735h-62.494zM6914.099 78437.161v18.8h143.268v-18.8h-143.268zM6914.345 78482.678v18.8h143.534v-18.8h-143.534zM6914.622 78528.235v18.483h143.524v-18.483h-143.524z" fill="#000000" />
	<path d="M59.321 255.959c0 110.418 88.125 199.885 196.495 199.885 50.954 0 97.556-19.558 132.669-51.978l-288.973-268.749c-25.323 33.444-40.192 75.284-40.192 120.842z" fill="#000000" />
	<path d="M255.815 55.818c-45.895 0-87.44 15.862-120.853 42.496l285.932 266.363c20.245-31.396 31.724-68.516 31.724-108.718 0-110.356-88.094-200.141-196.803-200.141z" fill="#000000" />
	<path d="M255.98 3.604c-139.376 0-252.355 113.019-252.355 252.395s112.978 252.395 252.365 252.395c139.387 0 252.395-113.019 252.395-252.395s-113.019-252.395-252.406-252.395zM255.815 486.902c-124.938 0-226.867-103.639-226.867-230.942 0-53.299 17.91-102.605 47.954-141.762l-0.338-0.317 6.421-7.117c5.386-6.421 11.111-12.483 16.865-18.237l11.131-12.144 1.352 1.024c39.178-32.737 88.801-52.337 143.493-52.337 125.563 0 227.205 103.321 227.205 230.902-0.010 127.294-101.653 230.933-227.215 230.933z" fill="#000000" />
</svg>
